<?xml version="1.0" encoding="utf-8"?>
<!-- Generator: Adobe Illustrator 19.0.0, SVG Export Plug-In . SVG Version: 6.00 Build 0)  -->
<svg version="1.1" id="Layer_1" xmlns="http://www.w3.org/2000/svg" xmlns:xlink="http://www.w3.org/1999/xlink" x="0px" y="0px"
	 viewBox="-434.9 258 23.8 32.5" style="enable-background:new -434.9 258 23.8 32.5;" xml:space="preserve">
<style type="text/css">
	.st0{fill:#3B3B3B;}
</style>
<g>
	<g>
		<path class="st0" d="M-428,267.8c-0.1,0-0.1,0-0.2,0c-0.2,0-0.4-0.1-0.6-0.2l-0.9,0.9c0.4,0.3,0.9,0.5,1.5,0.5
			c0.6,0,1.1-0.2,1.5-0.5l-0.9-0.9C-427.7,267.7-427.8,267.8-428,267.8z"/>
		<path class="st0" d="M-427.2,266c0.1,0.1,0.1,0.3,0.2,0.4c0,0.3,0,0.6-0.2,0.8l0.9,0.9c0.3-0.4,0.5-0.9,0.5-1.5s-0.2-1.1-0.5-1.5
			L-427.2,266z"/>
		<path class="st0" d="M-429.3,266.8c0-0.3,0-0.6,0.2-0.8l-0.9-0.8c-0.3,0.4-0.5,0.9-0.5,1.5c0,0.6,0.2,1.1,0.5,1.5l0.9-0.9
			C-429.2,267.1-429.3,267-429.3,266.8z"/>
		<path class="st0" d="M-428.2,266L-428.2,266c-0.5,0.1-0.7,0.4-0.7,0.8c0.1,0.4,0.4,0.6,0.8,0.6c0.2,0,0.3-0.1,0.4-0.3
			c0.1-0.1,0.1-0.3,0.1-0.5C-427.6,266.2-427.9,266-428.2,266z"/>
		<path class="st0" d="M-428.4,265.5c0.3,0,0.6,0,0.8,0.2l0.9-0.9c-0.4-0.3-0.9-0.5-1.5-0.5c-0.6,0-1.1,0.2-1.5,0.5l0.9,0.9
			C-428.7,265.6-428.5,265.6-428.4,265.5z"/>
		<path class="st0" d="M-417.8,269c0.7,0,1.3-0.3,1.8-0.8h-3.6C-419.2,268.7-418.5,269-417.8,269z"/>
		<path class="st0" d="M-419.9,267.7h4.2c0.1-0.2,0.2-0.5,0.2-0.8h-4.7C-420.1,267.2-420,267.5-419.9,267.7z"/>
		<path class="st0" d="M-419.9,265.6c-0.1,0.3-0.2,0.5-0.2,0.8h4.7c0-0.3-0.1-0.6-0.2-0.8H-419.9z"/>
		<path class="st0" d="M-417.8,264.3c-0.7,0-1.3,0.3-1.8,0.8h3.6C-416.5,264.6-417.1,264.3-417.8,264.3z"/>
	</g>
	<path class="st0" d="M-413.1,269.5c0.5-0.8,0.8-1.8,0.8-2.8l0,0c0-5.5,1.2-8.5,1.2-8.5h-0.3c-2.3,0-4.7,0.5-6.6,1.4
		c-1.4-1-3.2-1.6-5-1.6c-1.8,0-3.5,0.6-5,1.6c-1.9-0.9-4.2-1.4-6.6-1.4h-0.3c0,0,1.1,3,1.2,8.5l0,0c0,1,0.3,2,0.8,2.8
		c-5.4,6.8,1,16.4,9.9,21l0,0C-414.1,285.9-407.7,276.3-413.1,269.5z M-423,258.6c1.6,0,3.1,0.5,4.3,1.3c-0.1,0.1-0.2,0.1-0.3,0.2
		c-1.9,1.1-3.4,2.7-4,4.7c-0.6-1.9-2.1-3.6-4-4.7c-0.1-0.1-0.2-0.1-0.3-0.2C-426,259.1-424.5,258.6-423,258.6z M-423,273.1
		c0,0-1.7-1.3-1.7-2.5l1.7-2.1l1.7,2.1C-421.3,271.8-423,273.1-423,273.1z M-418.9,275.5c-0.2,0.2-0.3,0.3-0.6,0.4
		c-0.8,0.3-1.7-0.1-2-0.9c-0.1-0.2-0.1-0.4-0.1-0.7C-420.5,274.5-419.6,275-418.9,275.5z M-429.8,270.8l-0.4-0.2
		c-0.1-0.1-0.2-0.2-0.1-0.3l0.2-0.4c0,0,0-0.1,0.1-0.1c-0.2-0.1-0.5-0.3-0.6-0.5c0,0,0,0.1-0.1,0.1l-0.3,0.3c-0.1,0.1-0.3,0.1-0.4,0
		l-0.3-0.3c-0.1-0.1-0.1-0.3,0-0.4l0.3-0.3h0.1c-0.1-0.2-0.3-0.5-0.4-0.7c0,0-0.1,0-0.1,0.1l-0.4,0.1c-0.1,0-0.3-0.1-0.3-0.2
		l-0.1-0.4c0-0.1,0.1-0.3,0.2-0.3l0.4-0.1h0.1c0-0.3,0-0.5,0-0.8h-0.1l-0.4-0.1c-0.1,0-0.2-0.2-0.2-0.3l0.1-0.4
		c0-0.1,0.2-0.2,0.3-0.2l0.4,0.1h0.1c0.1-0.2,0.2-0.5,0.3-0.7l0,0h-0.1l-0.3-0.3c-0.1-0.1-0.1-0.2,0-0.4l0.3-0.3
		c0.1-0.1,0.3-0.1,0.4,0l0.3,0.3c0,0,0,0,0.1,0.1c0.2-0.2,0.4-0.4,0.6-0.5c0,0,0,0-0.1-0.1l-0.2-0.4c-0.1-0.1,0-0.3,0.1-0.3l0.3-0.3
		c0.1-0.1,0.3,0,0.3,0.1l0.2,0.4v0.1c0.3-0.1,0.5-0.1,0.8-0.2v-0.1v-0.4c0-0.1,0.1-0.3,0.3-0.3h0.4c0.1,0,0.3,0.1,0.3,0.3v0.4v0.1
		c0.2,0,0.4,0.1,0.5,0.1V263l0.2-0.4c0.1-0.1,0.2-0.2,0.3-0.1l0.4,0.2c0.1,0.1,0.2,0.2,0.1,0.3l-0.2,0.4c0,0,0,0,0,0.1
		c0,0,0,0,0.1,0c0.2,0.1,0.4,0.3,0.6,0.4c0,0,0,0,0-0.1l0.3-0.3c0.1-0.1,0.3-0.1,0.4,0l0.3,0.3c0.1,0.1,0.1,0.3,0,0.4l-0.3,0.3
		c0,0,0,0-0.1,0c0.2,0.2,0.3,0.5,0.4,0.7c0,0,0,0,0.1,0l0.4-0.1c0.1,0,0.3,0,0.3,0.2l0.1,0.4c0,0.1,0,0.3-0.2,0.3l-0.4,0.1h-0.1
		c0,0.3,0.1,0.5,0,0.8h0.1l0.4,0.1c0.1,0,0.2,0.2,0.2,0.3l-0.1,0.4c0,0.1-0.2,0.2-0.3,0.2l-0.4-0.1h-0.1c-0.1,0.2-0.2,0.5-0.3,0.7
		h0.1l0.3,0.2c0.1,0.1,0.1,0.2,0.1,0.4l-0.2,0.3c-0.1,0.1-0.2,0.1-0.4,0.1l-0.3-0.2c0,0-0.1,0-0.1-0.1c-0.2,0.2-0.4,0.4-0.6,0.5
		c0,0,0.1,0,0.1,0.1l0.2,0.4c0.1,0.1,0,0.3-0.1,0.3l-0.4,0.2c-0.1,0.1-0.3,0-0.3-0.1l-0.2-0.4v-0.1c-0.3,0.1-0.5,0.2-0.8,0.2v0.1
		v0.4c0,0.1-0.1,0.3-0.2,0.3h-0.4c-0.1,0-0.3-0.1-0.3-0.2v-0.4v-0.1c-0.3,0-0.5-0.1-0.8-0.2v0.1l-0.2,0.4
		C-429.5,270.8-429.7,270.9-429.8,270.8z M-423,289.4L-423,289.4c0,0-0.9-0.7-2.1-1.8c0.3-0.3,0.6-0.6,1-0.8
		c1.1-0.4,2.3-0.1,3.1,0.8C-422.1,288.7-423,289.4-423,289.4z M-420,286.6c-0.2-0.2-0.4-0.4-0.6-0.5l0.2-0.9c-0.5-0.3-1-0.5-1.5-0.7
		l-0.5,0.7c-0.4-0.1-0.8-0.1-1.2,0l-0.4-0.6c-0.5,0.1-1.1,0.3-1.6,0.6l0.2,0.9c-0.2,0.2-0.4,0.3-0.6,0.5c-1.6-1.8-3.4-4.3-3.4-6.9
		c0-2.7,2.6-5.6,6.3-5.6c0.1,0,0.2,0,0.4,0c0,0.2,0,0.4,0,0.6l-0.5,0.3c0.1,0.4,0.2,0.7,0.4,1.1l0.6-0.1c0.2,0.2,0.3,0.4,0.5,0.6
		l-0.2,0.6c0.3,0.2,0.7,0.4,1,0.5l0.3-0.5c0.3,0.1,0.5,0.1,0.8,0l0.3,0.5c0.4-0.1,0.7-0.2,1.1-0.4l-0.1-0.6c0.2-0.1,0.3-0.2,0.4-0.4
		c0.9,1,1.3,2.2,1.3,3.4C-416.7,282.3-418.4,284.8-420,286.6z M-413.5,267.6c0,0.1-0.2,0.2-0.3,0.2l-0.4-0.1h-0.1
		c-0.1,0.2-0.2,0.5-0.3,0.7h0.1l0.3,0.2c0.1,0.1,0.1,0.2,0.1,0.4l-0.2,0.3c-0.1,0.1-0.2,0.1-0.4,0.1l-0.3-0.1c0,0-0.1,0-0.1-0.1
		c-0.2,0.2-0.4,0.4-0.6,0.5c0,0,0.1,0,0.1,0.1l0.2,0.4c0.1,0.1,0,0.3-0.1,0.3l-0.4,0.2c-0.1,0.1-0.3,0-0.3-0.1l-0.2-0.4v-0.1
		c-0.3,0.1-0.5,0.2-0.8,0.2v0.1v0.4c0,0.1-0.1,0.3-0.3,0.3h-0.4c-0.1,0-0.3-0.1-0.3-0.2v-0.4v-0.1c-0.3,0-0.5-0.1-0.8-0.2v0.1
		l-0.2,0.4c-0.1,0.1-0.2,0.2-0.3,0.1l-0.4-0.2c-0.1,0-0.1-0.2-0.1-0.3l0.2-0.4c0,0,0-0.1,0.1-0.1c-0.2-0.1-0.5-0.3-0.6-0.5
		c0,0,0,0.1-0.1,0.1l-0.3,0.3c-0.1,0.1-0.3,0.1-0.4,0l-0.3-0.3c-0.1-0.1-0.1-0.3,0-0.4l0.3-0.3h0.1c-0.1-0.2-0.3-0.5-0.4-0.7
		c0,0-0.1,0-0.1,0.1l-0.4,0.1c-0.1,0-0.3-0.1-0.3-0.2l-0.1-0.4c0-0.1,0.1-0.3,0.2-0.3l0.4-0.1h0.1c0-0.3,0-0.5,0-0.8h-0.1l-0.4-0.1
		c-0.1,0-0.2-0.2-0.2-0.3l0.1-0.4c0-0.1,0.2-0.2,0.3-0.2l0.4,0.1h0.1c0.1-0.2,0.2-0.5,0.3-0.7l0,0h-0.1l-0.3-0.3
		c-0.1-0.1-0.1-0.2,0-0.4l0.3-0.3c0.1-0.1,0.3-0.1,0.4,0l0.3,0.3c0,0,0,0,0.1,0.1c0.2-0.2,0.4-0.4,0.6-0.5c0,0,0,0-0.1-0.1l-0.2-0.4
		c-0.1-0.1,0-0.3,0.1-0.3l0.4-0.2c0.1-0.1,0.3,0,0.3,0.1l0.2,0.4v0.1c0.3-0.1,0.5-0.1,0.8-0.2V263v-0.5c0-0.1,0.1-0.3,0.3-0.3h0.4
		c0.1,0,0.3,0.1,0.3,0.3v0.4v0.1c0.2,0,0.4,0.1,0.5,0.1V263l0.2-0.4c0.1-0.1,0.2-0.2,0.3-0.1l0.3,0.1c0.1,0.1,0.2,0.2,0.1,0.3
		l-0.1,0.4c0,0,0,0,0,0.1c0,0,0,0,0.1,0c0.2,0.1,0.4,0.3,0.6,0.4c0,0,0,0,0-0.1l0.3-0.3c0.1-0.1,0.3-0.1,0.4,0l0.3,0.3
		c0.1,0.1,0.1,0.3,0,0.4l-0.3,0.3c0,0,0,0-0.1,0c0.2,0.2,0.3,0.4,0.4,0.7c0,0,0,0,0.1,0l0.4-0.1c0.1,0,0.3,0,0.3,0.2l0.1,0.4
		c0,0.1,0,0.3-0.2,0.3l-0.4,0.2h-0.1c0,0.3,0.1,0.5,0,0.8h0.1l0.4,0.1c0.1,0,0.2,0.2,0.2,0.3L-413.5,267.6z"/>
	<g>
		<g>
			<circle class="st0" cx="-426.5" cy="283.8" r="0.4"/>
			<circle class="st0" cx="-428.1" cy="279.2" r="0.4"/>
			<circle class="st0" cx="-426.9" cy="277" r="0.4"/>
			<circle class="st0" cx="-424.9" cy="275.7" r="0.4"/>
		</g>
	</g>
	<g>
		<g>
			<circle class="st0" cx="-419.6" cy="283.8" r="0.4"/>
			<circle class="st0" cx="-418.4" cy="281.7" r="0.4"/>
			<circle class="st0" cx="-418" cy="279.2" r="0.4"/>
		</g>
	</g>
	<path class="st0" d="M-428,281.1l-0.1,0.2l0.2,0.1c0,0.1,0,0.1,0,0.2l-0.2,0.1l0.1,0.3l0.3-0.1l0.1,0.1l-0.1,0.3l0.2,0.1l0.1-0.2
		c0.1,0,0.1,0,0.2,0l0.1,0.2l0.2-0.1V282l0.1-0.1l0.3,0.1l0.1-0.2l-0.2-0.1c0-0.1,0-0.1,0-0.2l0.2-0.1l-0.1-0.2l-0.3,0.1l-0.1-0.1
		l0.1-0.3l-0.2-0.2l-0.1,0.2c-0.1,0-0.1,0-0.2,0l-0.1-0.2l-0.2,0.1l0.1,0.3l-0.1,0.1L-428,281.1z"/>
	<g>
		<g>
			<g>
				<path class="st0" d="M-425.2,279.3l0.5,0.1c0.1-0.2,0.3-0.4,0.5-0.5l-0.1-0.5c0.3-0.2,0.6-0.3,0.9-0.4l0.3,0.4
					c0.2,0,0.5,0,0.7,0l0.3-0.4c0.3,0.1,0.6,0.2,0.9,0.4l-0.2,0.6c0.2,0.1,0.4,0.3,0.5,0.5l0.5-0.1c0.2,0.3,0.3,0.6,0.4,0.9
					l-0.4,0.3c0,0.2,0,0.5,0,0.7l0.4,0.3c-0.1,0.3-0.2,0.6-0.4,0.9l-0.5-0.1c-0.1,0.2-0.3,0.4-0.5,0.5l0.1,0.5
					c-0.3,0.2-0.6,0.3-0.9,0.4l-0.3-0.4c-0.2,0-0.5,0-0.7,0l-0.3,0.4c-0.3-0.1-0.6-0.2-0.9-0.4l0.1-0.5c-0.2-0.1-0.4-0.3-0.5-0.5
					l-0.5,0.1c-0.2-0.3-0.3-0.6-0.4-0.9l0.4-0.3c0-0.2,0-0.5,0-0.7l-0.4-0.3C-425.5,279.9-425.4,279.6-425.2,279.3L-425.2,279.3z
					 M-423.6,282.7c1,0.4,2.2-0.1,2.6-1.1s-0.1-2.2-1.1-2.6s-2.2,0.1-2.6,1.1C-425.1,281.1-424.6,282.3-423.6,282.7z"/>
			</g>
		</g>
		<path class="st0" d="M-421.7,281.4l0.3,0.3c0.1-0.2,0.2-0.5,0.2-0.8c0-0.9-0.8-1.7-1.7-1.7s-1.7,0.8-1.7,1.7s0.8,1.7,1.7,1.7
			c0.5,0,1-0.2,1.3-0.6l-0.4-0.3c-0.1-0.1-0.1-0.2,0-0.2C-421.8,281.4-421.7,281.4-421.7,281.4z M-422.5,279.5
			c0.1-0.1,0.2-0.1,0.3,0c0.1,0.1,0.1,0.2,0,0.3c-0.1,0.1-0.2,0.1-0.3,0C-422.6,279.7-422.6,279.6-422.5,279.5z M-423.1,279.5
			c0-0.1,0.2-0.2,0.3-0.2c0.1,0,0.2,0.2,0.2,0.3s-0.2,0.2-0.3,0.2C-423.1,279.7-423.2,279.6-423.1,279.5z M-423.5,279.5
			c0.1,0,0.2,0.1,0.3,0.2c0,0.1-0.1,0.2-0.2,0.3c-0.1,0-0.2-0.1-0.3-0.2C-423.7,279.6-423.6,279.5-423.5,279.5z M-424,279.9
			c0.1-0.1,0.2,0,0.3,0.1c0.1,0.1,0,0.2-0.1,0.3c-0.1,0.1-0.2,0-0.3-0.1C-424.2,280.2-424.1,280-424,279.9z M-424.3,280.5
			c0.1-0.1,0.2-0.1,0.3-0.1c0.1,0.1,0.1,0.2,0.1,0.3c-0.1,0.1-0.2,0.1-0.3,0.1C-424.3,280.8-424.4,280.7-424.3,280.5z M-424.3,281.2
			c0-0.1,0.1-0.2,0.2-0.2s0.2,0.1,0.2,0.2c0,0.1-0.1,0.2-0.2,0.2S-424.3,281.3-424.3,281.2z M-423.7,282c-0.1,0-0.2,0-0.3-0.1
			c0-0.1,0-0.2,0.1-0.3c0.1,0,0.2,0,0.3,0.1C-423.6,281.8-423.6,281.9-423.7,282z M-423.2,282.2c-0.1,0.1-0.2,0.1-0.3,0
			c-0.1-0.1-0.1-0.2,0-0.3s0.2-0.1,0.3,0C-423.1,282-423.1,282.2-423.2,282.2z M-422.6,282.3c0,0.1-0.2,0.2-0.3,0.1
			c-0.1,0-0.2-0.2-0.1-0.3c0-0.1,0.2-0.2,0.3-0.1C-422.6,282-422.6,282.2-422.6,282.3z M-422.2,282.3c-0.1,0-0.2-0.1-0.2-0.2
			s0.1-0.2,0.2-0.2c0.1,0,0.2,0.1,0.2,0.2S-422.1,282.3-422.2,282.3z M-422.8,281.9c-0.5,0-1-0.4-1-1s0.4-1,1-1c0.5,0,1,0.4,1,1
			S-422.3,281.9-422.8,281.9z"/>
	</g>
</g>
</svg>
